<svg viewBox="0 0 330 200" xmlns="http://www.w3.org/2000/svg"><g><g><g><g><g><line x1="53.1875" y1="176" x2="48.1875" y2="176" style="visibility: inherit;" fill="rgb(0, 0, 0)" stroke="rgb(204, 204, 204)" stroke-width="1px"></line><line x1="53.1875" y1="161.33333333333326" x2="48.1875" y2="161.33333333333326" style="visibility: inherit;" fill="rgb(0, 0, 0)" stroke="rgb(204, 204, 204)" stroke-width="1px"></line><line x1="53.1875" y1="146.66666666666666" x2="48.1875" y2="146.66666666666666" style="visibility: inherit;" fill="rgb(0, 0, 0)" stroke="rgb(204, 204, 204)" stroke-width="1px"></line><line x1="53.1875" y1="132.00000000000003" x2="48.1875" y2="132.00000000000003" style="visibility: inherit;" fill="rgb(0, 0, 0)" stroke="rgb(204, 204, 204)" stroke-width="1px"></line><line x1="53.1875" y1="117.33333333333329" x2="48.1875" y2="117.33333333333329" style="visibility: inherit;" fill="rgb(0, 0, 0)" stroke="rgb(204, 204, 204)" stroke-width="1px"></line><line x1="53.1875" y1="102.66666666666667" x2="48.1875" y2="102.66666666666667" style="visibility: inherit;" fill="rgb(0, 0, 0)" stroke="rgb(204, 204, 204)" stroke-width="1px"></line><line x1="53.1875" y1="87.99999999999994" x2="48.1875" y2="87.99999999999994" style="visibility: inherit;" fill="rgb(0, 0, 0)" stroke="rgb(204, 204, 204)" stroke-width="1px"></line><line x1="53.1875" y1="73.33333333333333" x2="48.1875" y2="73.33333333333333" style="visibility: inherit;" fill="rgb(0, 0, 0)" stroke="rgb(204, 204, 204)" stroke-width="1px"></line><line x1="53.1875" y1="58.666666666666714" x2="48.1875" y2="58.666666666666714" style="visibility: inherit;" fill="rgb(0, 0, 0)" stroke="rgb(204, 204, 204)" stroke-width="1px"></line><line x1="53.1875" y1="43.99999999999996" x2="48.1875" y2="43.99999999999996" style="visibility: inherit;" fill="rgb(0, 0, 0)" stroke="rgb(204, 204, 204)" stroke-width="1px"></line><line x1="53.1875" y1="29.333333333333346" x2="48.1875" y2="29.333333333333346" style="visibility: inherit;" fill="rgb(0, 0, 0)" stroke="rgb(204, 204, 204)" stroke-width="1px"></line><line x1="53.1875" y1="14.666666666666615" x2="48.1875" y2="14.666666666666615" style="visibility: inherit;" fill="rgb(0, 0, 0)" stroke="rgb(204, 204, 204)" stroke-width="1px"></line><line x1="53.1875" y1="0" x2="48.1875" y2="0" style="visibility: inherit;" fill="rgb(0, 0, 0)" stroke="rgb(204, 204, 204)" stroke-width="1px"></line></g><g transform="translate(43.1875, 0)"><text x="0" y="176" dx="0em" dy="0.3em" style="text-anchor: end; visibility: hidden; font-family: Roboto, sans-serif; font-size: 12px; font-weight: 200;" fill="rgb(33, 33, 33)" stroke="none" stroke-width="1px">3.15</text><text x="0" y="161.33333333333326" dx="0em" dy="0.3em" style="text-anchor: end; visibility: inherit; font-family: Roboto, sans-serif; font-size: 12px; font-weight: 200;" fill="rgb(33, 33, 33)" stroke="none" stroke-width="1px">3.2</text><text x="0" y="146.66666666666666" dx="0em" dy="0.3em" style="text-anchor: end; visibility: hidden; font-family: Roboto, sans-serif; font-size: 12px; font-weight: 200;" fill="rgb(33, 33, 33)" stroke="none" stroke-width="1px">3.25</text><text x="0" y="132.00000000000003" dx="0em" dy="0.3em" style="text-anchor: end; visibility: inherit; font-family: Roboto, sans-serif; font-size: 12px; font-weight: 200;" fill="rgb(33, 33, 33)" stroke="none" stroke-width="1px">3.3</text><text x="0" y="117.33333333333329" dx="0em" dy="0.3em" style="text-anchor: end; visibility: hidden; font-family: Roboto, sans-serif; font-size: 12px; font-weight: 200;" fill="rgb(33, 33, 33)" stroke="none" stroke-width="1px">3.35</text><text x="0" y="102.66666666666667" dx="0em" dy="0.3em" style="text-anchor: end; visibility: inherit; font-family: Roboto, sans-serif; font-size: 12px; font-weight: 200;" fill="rgb(33, 33, 33)" stroke="none" stroke-width="1px">3.4</text><text x="0" y="87.99999999999994" dx="0em" dy="0.3em" style="text-anchor: end; visibility: hidden; font-family: Roboto, sans-serif; font-size: 12px; font-weight: 200;" fill="rgb(33, 33, 33)" stroke="none" stroke-width="1px">3.45</text><text x="0" y="73.33333333333333" dx="0em" dy="0.3em" style="text-anchor: end; visibility: inherit; font-family: Roboto, sans-serif; font-size: 12px; font-weight: 200;" fill="rgb(33, 33, 33)" stroke="none" stroke-width="1px">3.5</text><text x="0" y="58.666666666666714" dx="0em" dy="0.3em" style="text-anchor: end; visibility: hidden; font-family: Roboto, sans-serif; font-size: 12px; font-weight: 200;" fill="rgb(33, 33, 33)" stroke="none" stroke-width="1px">3.55</text><text x="0" y="43.99999999999996" dx="0em" dy="0.3em" style="text-anchor: end; visibility: inherit; font-family: Roboto, sans-serif; font-size: 12px; font-weight: 200;" fill="rgb(33, 33, 33)" stroke="none" stroke-width="1px">3.6</text><text x="0" y="29.333333333333346" dx="0em" dy="0.3em" style="text-anchor: end; visibility: hidden; font-family: Roboto, sans-serif; font-size: 12px; font-weight: 200;" fill="rgb(33, 33, 33)" stroke="none" stroke-width="1px">3.65</text><text x="0" y="14.666666666666615" dx="0em" dy="0.3em" style="text-anchor: end; visibility: inherit; font-family: Roboto, sans-serif; font-size: 12px; font-weight: 200;" fill="rgb(33, 33, 33)" stroke="none" stroke-width="1px">3.7</text><text x="0" y="0" dx="0em" dy="0.3em" style="text-anchor: end; visibility: hidden; font-family: Roboto, sans-serif; font-size: 12px; font-weight: 200;" fill="rgb(33, 33, 33)" stroke="none" stroke-width="1px">3.75</text></g><line x1="53.1875" y1="0" x2="53.1875" y2="176" fill="rgb(0, 0, 0)" stroke="rgb(204, 204, 204)" stroke-width="1px"></line></g></g><g transform="translate(53, 0)" clip-path="url(#clip_0)"><clipPath id="clip_0"><rect width="276" height="176"></rect></clipPath><g><g><g><line x1="0" y1="0" x2="0" y2="176" fill="rgb(0, 0, 0)" stroke="rgb(66, 66, 66)" stroke-width="1px" opacity="0.25"></line><line x1="23.067708333333332" y1="0" x2="23.067708333333332" y2="176" fill="rgb(0, 0, 0)" stroke="rgb(66, 66, 66)" stroke-width="1px" opacity="0.25"></line><line x1="46.135416666666664" y1="0" x2="46.135416666666664" y2="176" fill="rgb(0, 0, 0)" stroke="rgb(66, 66, 66)" stroke-width="1px" opacity="0.25"></line><line x1="69.203125" y1="0" x2="69.203125" y2="176" fill="rgb(0, 0, 0)" stroke="rgb(66, 66, 66)" stroke-width="1px" opacity="0.25"></line><line x1="92.27083333333333" y1="0" x2="92.27083333333333" y2="176" fill="rgb(0, 0, 0)" stroke="rgb(66, 66, 66)" stroke-width="1px" opacity="0.25"></line><line x1="115.33854166666667" y1="0" x2="115.33854166666667" y2="176" fill="rgb(0, 0, 0)" stroke="rgb(66, 66, 66)" stroke-width="1px" opacity="0.25"></line><line x1="138.40625" y1="0" x2="138.40625" y2="176" fill="rgb(0, 0, 0)" stroke="rgb(66, 66, 66)" stroke-width="1px" opacity="0.25"></line><line x1="161.47395833333334" y1="0" x2="161.47395833333334" y2="176" fill="rgb(0, 0, 0)" stroke="rgb(66, 66, 66)" stroke-width="1px" opacity="0.25"></line><line x1="184.54166666666666" y1="0" x2="184.54166666666666" y2="176" fill="rgb(0, 0, 0)" stroke="rgb(66, 66, 66)" stroke-width="1px" opacity="0.25"></line><line x1="207.609375" y1="0" x2="207.609375" y2="176" fill="rgb(0, 0, 0)" stroke="rgb(66, 66, 66)" stroke-width="1px" opacity="0.25"></line><line x1="230.67708333333334" y1="0" x2="230.67708333333334" y2="176" fill="rgb(0, 0, 0)" stroke="rgb(66, 66, 66)" stroke-width="1px" opacity="0.25"></line><line x1="253.74479166666666" y1="0" x2="253.74479166666666" y2="176" fill="rgb(0, 0, 0)" stroke="rgb(66, 66, 66)" stroke-width="1px" opacity="0.25"></line><line x1="276.8125" y1="0" x2="276.8125" y2="176" fill="rgb(0, 0, 0)" stroke="rgb(66, 66, 66)" stroke-width="1px" opacity="0.25"></line></g><g><line x1="0" y1="176" x2="276.8125" y2="176" fill="rgb(0, 0, 0)" stroke="rgb(66, 66, 66)" stroke-width="1px" opacity="0.25"></line><line x1="0" y1="161.33333333333326" x2="276.8125" y2="161.33333333333326" fill="rgb(0, 0, 0)" stroke="rgb(66, 66, 66)" stroke-width="1px" opacity="0.25"></line><line x1="0" y1="146.66666666666666" x2="276.8125" y2="146.66666666666666" fill="rgb(0, 0, 0)" stroke="rgb(66, 66, 66)" stroke-width="1px" opacity="0.25"></line><line x1="0" y1="132.00000000000003" x2="276.8125" y2="132.00000000000003" fill="rgb(0, 0, 0)" stroke="rgb(66, 66, 66)" stroke-width="1px" opacity="0.25"></line><line x1="0" y1="117.33333333333329" x2="276.8125" y2="117.33333333333329" fill="rgb(0, 0, 0)" stroke="rgb(66, 66, 66)" stroke-width="1px" opacity="0.25"></line><line x1="0" y1="102.66666666666667" x2="276.8125" y2="102.66666666666667" fill="rgb(0, 0, 0)" stroke="rgb(66, 66, 66)" stroke-width="1px" opacity="0.25"></line><line x1="0" y1="87.99999999999994" x2="276.8125" y2="87.99999999999994" fill="rgb(0, 0, 0)" stroke="rgb(66, 66, 66)" stroke-width="1px" opacity="0.25"></line><line x1="0" y1="73.33333333333333" x2="276.8125" y2="73.33333333333333" fill="rgb(0, 0, 0)" stroke="rgb(66, 66, 66)" stroke-width="1px" opacity="0.25"></line><line x1="0" y1="58.666666666666714" x2="276.8125" y2="58.666666666666714" fill="rgb(0, 0, 0)" stroke="rgb(66, 66, 66)" stroke-width="1px" opacity="0.25"></line><line x1="0" y1="43.99999999999996" x2="276.8125" y2="43.99999999999996" fill="rgb(0, 0, 0)" stroke="rgb(66, 66, 66)" stroke-width="1px" opacity="0.25"></line><line x1="0" y1="29.333333333333346" x2="276.8125" y2="29.333333333333346" fill="rgb(0, 0, 0)" stroke="rgb(66, 66, 66)" stroke-width="1px" opacity="0.25"></line><line x1="0" y1="14.666666666666615" x2="276.8125" y2="14.666666666666615" fill="rgb(0, 0, 0)" stroke="rgb(66, 66, 66)" stroke-width="1px" opacity="0.25"></line><line x1="0" y1="0" x2="276.8125" y2="0" fill="rgb(0, 0, 0)" stroke="rgb(66, 66, 66)" stroke-width="1px" opacity="0.25"></line></g></g></g><g><g><line x1="0" y1="1099.9999999999998" x2="276.8125" y2="1099.9999999999998" fill="rgb(0, 0, 0)" stroke="rgb(153, 153, 153)" stroke-width="1.5px"></line></g></g><g><g><line x1="23.067708333333332" y1="0" x2="23.067708333333332" y2="176" fill="rgb(0, 0, 0)" stroke="rgb(153, 153, 153)" stroke-width="1.5px"></line></g></g><g><g><g><g><g><path stroke="rgb(0, 119, 187)" stroke-width="2px" d="M23.067708333333332,-10.540002187093112L25.374479166666664,39.43372408548978L27.681250000000002,50.32554276135497L29.988020833333334,60.007065464468425L32.29479166666667,45.45158556096123L34.6015625,30.38257084992282L36.90833333333333,39.682798606400205L39.21510416666666,39.244576921358636L41.521875,36.84977834015317L43.82864583333333,16.932916257466843L46.135416666666664,10.62937080982227L48.442187499999996,17.51421421082827L50.74895833333333,28.00141509352874L53.05572916666667,37.69341063980058L55.362500000000004,53.11533245205922L57.669270833333336,53.75711907203037L59.97604166666667,57.62282535497875L62.2828125,59.69190919426717L64.58958333333334,66.79750192399813L66.89635416666667,72.90273712781863L69.203125,70.0256978155655L71.50989583333335,63.26586631603395L73.81666666666666,78.7087872548468L76.12343750000001,85.68300803614446L78.43020833333333,80.7219753690206L80.73697916666667,88.1573596886737L83.04375,92.4556308447674L85.35052083333333,95.84204564584583L87.65729166666667,99.73156498192184L89.9640625,103.76656998779556L92.27083333333333,106.53316877973572L94.57760416666667,104.65117095448532L96.88437499999999,105.66926300542148L99.19114583333334,112.3457896636514L101.49791666666665,114.38862668568498L103.8046875,110.80294780466767L106.11145833333335,110.34086139234317L108.41822916666666,117.58985469191268L110.72500000000001,119.30663142655702L113.03177083333333,120.88449307923486L115.33854166666667,117.30995202956987L117.6453125,122.12594110938235L119.95208333333333,124.1123795465741L122.25885416666667,121.83720159229645L124.565625,127.3287995326089L126.87239583333333,127.30369502311194L129.17916666666667,125.84716503220464L131.4859375,126.90107805173581L133.79270833333334,122.30108536857702L136.09947916666667,125.80473620245697L138.40625,132.81123883657992L140.71302083333333,137.69156253617436L143.0197916666667,140.41890022922877L145.3265625,139.58882386149472L147.63333333333333,140.962967880537L149.94010416666666,140.66937160966972L152.24687500000002,137.34438216176463L154.55364583333335,134.92182705096468L156.86041666666665,139.42643149669232L159.16718749999998,142.7258051870781L161.47395833333334,144.52639294297603L163.78072916666667,147.0044328727193L166.0875,144.8274155830065L168.3942708333333,146.161237659537L170.70104166666667,149.53738997527938L173.0078125,152.98376363604652L175.31458333333333,156.3680652901892L177.6213541666667,156.40773289156144L179.928125,155.08380853783402L182.23489583333333,156.73514789532408L184.54166666666666,158.93707720154976L186.84843750000002,156.55970522392474L189.15520833333335,158.84160265502535L191.46197916666665,159.76267440226007L193.76874999999998,159.0975058661281L196.07552083333334,159.60984018959877L198.38229166666667,160.87684822590114L200.6890625,161.39182904865913L202.9958333333333,162.56108772460556L205.30260416666667,161.94636129361746L207.609375,163.5051606278958L209.91614583333333,164.74091375954993L212.2229166666667,163.65876741263097L214.5296875,162.8967985335161L216.83645833333333,163.03186421532442L219.14322916666666,162.91439695123236L221.45000000000002,163.9944496331417L223.75677083333335,163.89212266074432L226.06354166666665,163.8944802411406L228.37031249999998,164.36950217056327L230.67708333333334,164.9439669273379L232.98385416666667,164.91199783218408L235.290625,164.93950572649143L237.5973958333333,164.9424428564678L239.90416666666667,165.15672700538454L242.2109375,165.372801563745L244.51770833333333,165.47813650465326L246.8244791666667,165.6215402076422L249.13125,165.75374026634964L251.43802083333333,165.82852844122252" style="fill: none;" fill="none"></path></g><g><path stroke="rgb(255, 112, 67)" stroke-width="2px" d="M25.374479166666664,-63.731113274892145L27.681250000000002,1.70700929602806L29.988020833333334,36.35916193326327L32.29479166666667,44.39256182760399L34.6015625,40.403672930932196L36.90833333333333,34.83942609471825L39.21510416666666,32.805433451337976L41.521875,21.21326542318819L43.82864583333333,18.023424721502998L46.135416666666664,10.070988030188625L48.442187499999996,8.507094242078358L50.74895833333333,16.16318323594669L53.05572916666667,25.784490125630956L55.362500000000004,33.59092388983449L57.669270833333336,36.280623389735716L59.97604166666667,37.354966406686145L62.2828125,43.77813667716265L64.58958333333334,50.44006322583513L66.89635416666667,53.96042519043398L69.203125,58.92668754524057L71.50989583333335,60.96298055232424L73.81666666666666,57.45744000906065L76.12343750000001,64.18545627352674L78.43020833333333,62.97934386212177L80.73697916666667,64.17271475756824L83.04375,68.41503049468724L85.35052083333333,73.08507768321601L87.65729166666667,68.25936494091388L89.9640625,73.0017193578485L92.27083333333333,73.62758249932136L94.57760416666667,81.55125004069242L96.88437499999999,79.23538400806665L99.19114583333334,84.912293799912L101.49791666666665,86.60114421262577L103.8046875,89.73603649480606L106.11145833333335,92.31188507607335L108.41822916666666,90.79237395992362L110.72500000000001,96.4838396108023L113.03177083333333,101.38743512069234L115.33854166666667,102.14517978233305L117.6453125,101.25484315949859L119.95208333333333,104.46415365867L122.25885416666667,104.14361568961263L124.565625,106.5079615079261L126.87239583333333,111.84606871417058L129.17916666666667,108.71157392695265L131.4859375,109.594892252513L133.79270833333334,111.12885816240077L136.09947916666667,115.27620202312495L138.40625,116.17051247364506L140.71302083333333,117.73440434698463L143.0197916666667,119.3376361181219L145.3265625,125.06051827569684L147.63333333333333,130.72655246118993L149.94010416666666,131.64511930223492L152.24687500000002,133.06511774426454L154.55364583333335,130.78104147175372L156.86041666666665,133.66206818139224L159.16718749999998,136.79894582420013L161.47395833333334,137.1812504290904L163.78072916666667,135.16425715442688L166.0875,135.61409282618476L168.3942708333333,137.70829181631638L170.70104166666667,136.40565288519994L173.0078125,135.17734558854187L175.31458333333333,137.43838265423196L177.6213541666667,140.59678305119806L179.928125,141.88726752359003L182.23489583333333,143.74562396223334L184.54166666666666,144.15920655100527L186.84843750000002,146.4323423713583L189.15520833333335,147.0900649076782L191.46197916666665,152.4634785401473L193.76874999999998,155.07611721442035L196.07552083333334,154.9459312539451L198.38229166666667,156.63924556063526L200.6890625,152.18950284175222L202.9958333333333,153.50019716810473L205.30260416666667,152.23029611661795L207.609375,152.76513893299165L209.91614583333333,151.7646156880827L212.2229166666667,157.8479845007403L214.5296875,157.94687358618626L216.83645833333333,156.8400642558785L219.14322916666666,155.60949611374846L221.45000000000002,158.48433475321L223.75677083333335,157.76318029935427L226.06354166666665,161.4623133920149L228.37031249999998,163.34453331922595L230.67708333333334,164.4733057866203L232.98385416666667,161.55641236601517L235.290625,162.28567949154916L237.5973958333333,160.85535799196728L239.90416666666667,161.58983426132622L242.2109375,162.10546356542207L244.51770833333333,158.20160974325714L246.8244791666667,160.24711737590215L249.13125,161.127342996342L251.43802083333333,161.01475164334568" style="fill: none;" fill="none"></path></g></g></g></g><g opacity="0.2"><g><g><g><path stroke="rgb(0, 119, 187)" stroke-width="2px" d="M23.067708333333332,-10.540002187093112L25.374479166666664,69.4179598490397L27.681250000000002,60.78168869018555L29.988020833333334,71.39253616333006L32.29479166666667,26.447950998942044L34.6015625,9.536698659261061L36.90833333333333,52.98227310180664L39.21510416666666,38.60564549763997L41.521875,33.31791559855142L43.82864583333333,-12.641302744547513L46.135416666666664,1.2312253316243424L48.442187499999996,27.804012298583984L50.74895833333333,43.69797388712564L53.05572916666667,52.2124163309733L55.362500000000004,76.23008728027342L57.669270833333336,54.71934636433919L59.97604166666667,63.41974894205728L62.2828125,62.79500961303711L64.58958333333334,77.45480855305989L66.89635416666667,82.06003189086913L69.203125,65.71029663085938L71.50989583333335,53.126341501871735L73.81666666666666,101.87286376953124L76.12343750000001,96.14425659179688L78.43020833333333,73.28046162923177L80.73697916666667,99.31040445963541L83.04375,98.90302658081055L85.35052083333333,100.92166264851886L87.65729166666667,105.56584040323892L89.9640625,109.81907526652017L92.27083333333333,110.68306605021158L94.57760416666667,101.82817459106444L96.88437499999999,107.19640096028644L99.19114583333334,122.36057917277017L101.49791666666665,117.45288213094074L103.8046875,105.4244295756022L106.11145833333335,109.64773178100585L108.41822916666666,128.46334457397458L110.72500000000001,121.88179651896158L113.03177083333333,123.2512855529785L115.33854166666667,111.94814046223956L117.6453125,129.34992472330728L119.95208333333333,127.09203720092772L122.25885416666667,118.42443466186522L124.565625,135.56619644165036L126.87239583333333,127.26603825887042L129.17916666666667,123.6623700459798L131.4859375,128.4819475809733L133.79270833333334,115.40109634399413L136.09947916666667,131.06021245320636L138.40625,143.32099278767902L140.71302083333333,145.01204808553058L143.0197916666667,144.5099067687988L145.3265625,138.34370930989581L147.63333333333333,143.0241839090983L149.94010416666666,140.2289772033691L152.24687500000002,132.35689798990884L154.55364583333335,131.2879943847656L156.86041666666665,146.18333816528317L159.16718749999998,147.67486572265622L161.47395833333334,147.2272745768229L163.78072916666667,150.72149276733396L166.0875,141.56188964843747L168.3942708333333,148.16197077433267L170.70104166666667,154.60161844889322L173.0078125,158.15332412719724L175.31458333333333,161.44451777140299L177.6213541666667,156.46723429361978L179.928125,153.09792200724283L182.23489583333333,159.21215693155924L184.54166666666666,162.23997116088864L186.84843750000002,152.99364725748697L189.15520833333335,162.2644488016764L191.46197916666665,161.14428202311197L193.76874999999998,158.09975306193033L196.07552083333334,160.37834167480466L198.38229166666667,162.7773602803548L200.6890625,162.1643002827962L202.9958333333333,164.31497573852536L205.30260416666667,161.0242716471354L207.609375,165.8433596293131L209.91614583333333,166.59454345703122L212.2229166666667,162.0355478922526L214.5296875,161.75384521484372L216.83645833333333,163.23446273803708L219.14322916666666,162.73819605509436L221.45000000000002,165.61452865600583L223.75677083333335,163.7386322021484L226.06354166666665,163.898016611735L228.37031249999998,165.08203506469724L230.67708333333334,165.80566406249997L232.98385416666667,164.8640441894531L235.290625,164.98076756795246L237.5973958333333,164.94684855143225L239.90416666666667,165.47815322875974L242.2109375,165.69691340128577L244.51770833333333,165.6361389160156L246.8244791666667,165.8366457621256L249.13125,165.95204035441077L251.43802083333333,165.94071070353186" style="fill: none;" fill="none"></path></g><g><path stroke="rgb(255, 112, 67)" stroke-width="2px" d="M23.067708333333332,-232.7899169921875L25.374479166666664,37.70416895548502L27.681250000000002,64.52760696411133L29.988020833333334,77.11009343465169L32.29479166666667,54.88096872965494L34.6015625,34.88560358683267L36.90833333333333,26.88246409098306L39.21510416666666,29.83985265096028L41.521875,4.117069244384766L43.82864583333333,13.28688303629558L46.135416666666664,-1.7855389912923307L48.442187499999996,6.169764200846361L50.74895833333333,27.622318267822266L53.05572916666667,40.197601318359375L55.362500000000004,45.29139836629231L57.669270833333336,40.31327565511067L59.97604166666667,38.966026306152344L62.2828125,53.41126124064127L64.58958333333334,60.43193817138672L66.89635416666667,59.24064636230469L69.203125,66.3758087158203L71.50989583333335,64.01735305786133L73.81666666666666,52.19919840494791L76.12343750000001,74.27740097045897L78.43020833333333,61.17018381754556L80.73697916666667,65.96276601155598L83.04375,74.7784932454427L85.35052083333333,80.0901412963867L87.65729166666667,61.02080027262369L89.9640625,80.1152483622233L92.27083333333333,74.56637700398763L94.57760416666667,93.43674977620441L96.88437499999999,75.76158523559569L99.19114583333334,93.42765808105469L101.49791666666665,89.13441975911456L103.8046875,94.43837483723956L106.11145833333335,96.17565790812174L108.41822916666666,88.51310729980469L110.72500000000001,105.02103805541991L113.03177083333333,108.74282836914061L115.33854166666667,103.28179677327472L117.6453125,99.91933822631835L119.95208333333333,109.27811940511066L122.25885416666667,103.66280873616535L124.565625,110.05448023478189L126.87239583333333,119.85322952270506L129.17916666666667,104.00983174641925L131.4859375,110.91986974080402L133.79270833333334,113.42980702718097L136.09947916666667,121.4972178141276L138.40625,117.51197814941405L140.71302083333333,120.08024215698241L143.0197916666667,121.74248377482095L145.3265625,133.64484151204425L147.63333333333333,139.22560373942056L149.94010416666666,133.02296956380206L152.24687500000002,135.19511540730792L154.55364583333335,127.35492706298827L156.86041666666665,137.98360824584958L159.16718749999998,141.50426228841144L161.47395833333334,137.75470733642575L163.78072916666667,132.1387672424316L166.0875,136.2888463338216L168.3942708333333,140.84959030151364L170.70104166666667,134.45169448852536L173.0078125,133.33488464355466L175.31458333333333,140.8299382527669L177.6213541666667,145.33438364664713L179.928125,143.8229942321777L182.23489583333333,146.53315862019855L184.54166666666666,144.7795804341634L186.84843750000002,149.842046101888L189.15520833333335,148.07664871215817L191.46197916666665,160.5235989888509L193.76874999999998,158.99507522583005L196.07552083333334,154.7506523132324L198.38229166666667,159.17921702067056L200.6890625,145.5148887634277L202.9958333333333,155.46623865763345L205.30260416666667,150.325444539388L207.609375,153.56740315755206L209.91614583333333,150.2638308207194L212.2229166666667,166.97303771972653L214.5296875,158.09520721435544L216.83645833333333,155.17985026041666L219.14322916666666,153.76364390055338L221.45000000000002,162.79659271240232L223.75677083333335,156.68144861857095L226.06354166666665,167.01101303100583L228.37031249999998,166.1678632100423L230.67708333333334,166.16646448771155L232.98385416666667,157.1810722351074L235.290625,163.37958017985022L237.5973958333333,158.7098757425944L239.90416666666667,162.69154866536456L242.2109375,162.87890752156574L244.51770833333333,152.34582901000974L246.8244791666667,163.31537882486975L249.13125,162.44768142700192L251.43802083333333,160.8458646138509" style="fill: none;" fill="none"></path></g></g></g></g></g></g><g transform="translate(53, 176)" clip-path="url(#clip_1)"><clipPath id="clip_1"><rect width="276" height="24"></rect></clipPath><g><g><line x1="0" y1="0" x2="0" y2="5" style="visibility: inherit;" fill="rgb(0, 0, 0)" stroke="rgb(204, 204, 204)" stroke-width="1px"></line><line x1="23.067708333333332" y1="0" x2="23.067708333333332" y2="5" style="visibility: inherit;" fill="rgb(0, 0, 0)" stroke="rgb(204, 204, 204)" stroke-width="1px"></line><line x1="46.135416666666664" y1="0" x2="46.135416666666664" y2="5" style="visibility: inherit;" fill="rgb(0, 0, 0)" stroke="rgb(204, 204, 204)" stroke-width="1px"></line><line x1="69.203125" y1="0" x2="69.203125" y2="5" style="visibility: inherit;" fill="rgb(0, 0, 0)" stroke="rgb(204, 204, 204)" stroke-width="1px"></line><line x1="92.27083333333333" y1="0" x2="92.27083333333333" y2="5" style="visibility: inherit;" fill="rgb(0, 0, 0)" stroke="rgb(204, 204, 204)" stroke-width="1px"></line><line x1="115.33854166666667" y1="0" x2="115.33854166666667" y2="5" style="visibility: inherit;" fill="rgb(0, 0, 0)" stroke="rgb(204, 204, 204)" stroke-width="1px"></line><line x1="138.40625" y1="0" x2="138.40625" y2="5" style="visibility: inherit;" fill="rgb(0, 0, 0)" stroke="rgb(204, 204, 204)" stroke-width="1px"></line><line x1="161.47395833333334" y1="0" x2="161.47395833333334" y2="5" style="visibility: inherit;" fill="rgb(0, 0, 0)" stroke="rgb(204, 204, 204)" stroke-width="1px"></line><line x1="184.54166666666666" y1="0" x2="184.54166666666666" y2="5" style="visibility: inherit;" fill="rgb(0, 0, 0)" stroke="rgb(204, 204, 204)" stroke-width="1px"></line><line x1="207.609375" y1="0" x2="207.609375" y2="5" style="visibility: inherit;" fill="rgb(0, 0, 0)" stroke="rgb(204, 204, 204)" stroke-width="1px"></line><line x1="230.67708333333334" y1="0" x2="230.67708333333334" y2="5" style="visibility: inherit;" fill="rgb(0, 0, 0)" stroke="rgb(204, 204, 204)" stroke-width="1px"></line><line x1="253.74479166666666" y1="0" x2="253.74479166666666" y2="5" style="visibility: inherit;" fill="rgb(0, 0, 0)" stroke="rgb(204, 204, 204)" stroke-width="1px"></line><line x1="276.8125" y1="0" x2="276.8125" y2="5" style="visibility: inherit;" fill="rgb(0, 0, 0)" stroke="rgb(204, 204, 204)" stroke-width="1px"></line></g><g transform="translate(0, 8)"><text x="0" y="0" dx="0em" dy="0.95em" style="text-anchor: middle; visibility: hidden; font-family: Roboto, sans-serif; font-size: 12px; font-weight: 200;" fill="rgb(33, 33, 33)" stroke="none" stroke-width="1px">-10</text><text x="23.067708333333332" y="0" dx="0em" dy="0.95em" style="text-anchor: middle; visibility: inherit; font-family: Roboto, sans-serif; font-size: 12px; font-weight: 200;" fill="rgb(33, 33, 33)" stroke="none" stroke-width="1px">0</text><text x="46.135416666666664" y="0" dx="0em" dy="0.95em" style="text-anchor: middle; visibility: inherit; font-family: Roboto, sans-serif; font-size: 12px; font-weight: 200;" fill="rgb(33, 33, 33)" stroke="none" stroke-width="1px">10</text><text x="69.203125" y="0" dx="0em" dy="0.95em" style="text-anchor: middle; visibility: inherit; font-family: Roboto, sans-serif; font-size: 12px; font-weight: 200;" fill="rgb(33, 33, 33)" stroke="none" stroke-width="1px">20</text><text x="92.27083333333333" y="0" dx="0em" dy="0.95em" style="text-anchor: middle; visibility: inherit; font-family: Roboto, sans-serif; font-size: 12px; font-weight: 200;" fill="rgb(33, 33, 33)" stroke="none" stroke-width="1px">30</text><text x="115.33854166666667" y="0" dx="0em" dy="0.95em" style="text-anchor: middle; visibility: inherit; font-family: Roboto, sans-serif; font-size: 12px; font-weight: 200;" fill="rgb(33, 33, 33)" stroke="none" stroke-width="1px">40</text><text x="138.40625" y="0" dx="0em" dy="0.95em" style="text-anchor: middle; visibility: inherit; font-family: Roboto, sans-serif; font-size: 12px; font-weight: 200;" fill="rgb(33, 33, 33)" stroke="none" stroke-width="1px">50</text><text x="161.47395833333334" y="0" dx="0em" dy="0.95em" style="text-anchor: middle; visibility: inherit; font-family: Roboto, sans-serif; font-size: 12px; font-weight: 200;" fill="rgb(33, 33, 33)" stroke="none" stroke-width="1px">60</text><text x="184.54166666666666" y="0" dx="0em" dy="0.95em" style="text-anchor: middle; visibility: inherit; font-family: Roboto, sans-serif; font-size: 12px; font-weight: 200;" fill="rgb(33, 33, 33)" stroke="none" stroke-width="1px">70</text><text x="207.609375" y="0" dx="0em" dy="0.95em" style="text-anchor: middle; visibility: inherit; font-family: Roboto, sans-serif; font-size: 12px; font-weight: 200;" fill="rgb(33, 33, 33)" stroke="none" stroke-width="1px">80</text><text x="230.67708333333334" y="0" dx="0em" dy="0.95em" style="text-anchor: middle; visibility: inherit; font-family: Roboto, sans-serif; font-size: 12px; font-weight: 200;" fill="rgb(33, 33, 33)" stroke="none" stroke-width="1px">90</text><text x="253.74479166666666" y="0" dx="0em" dy="0.95em" style="text-anchor: middle; visibility: inherit; font-family: Roboto, sans-serif; font-size: 12px; font-weight: 200;" fill="rgb(33, 33, 33)" stroke="none" stroke-width="1px">100</text><text x="276.8125" y="0" dx="0em" dy="0.95em" style="text-anchor: middle; visibility: hidden; font-family: Roboto, sans-serif; font-size: 12px; font-weight: 200;" fill="rgb(33, 33, 33)" stroke="none" stroke-width="1px">110</text></g><line x1="0" y1="0" x2="276.8125" y2="0" fill="rgb(0, 0, 0)" stroke="rgb(204, 204, 204)" stroke-width="1px"></line></g></g></g></g></svg>