<svg id="SvgjsSvg1172" width="936" height="534" xmlns="http://www.w3.org/2000/svg" version="1.1" xmlns:xlink="http://www.w3.org/1999/xlink" xmlns:svgjs="http://svgjs.com/svgjs"><defs id="SvgjsDefs1173"><marker id="SvgjsMarker1274" markerWidth="13" markerHeight="9" refX="9.5" refY="4.5" viewBox="0 0 13 9" orient="auto" markerUnits="userSpaceOnUse" stroke-dasharray="0,0"><path id="SvgjsPath1275" d="M0,0 L13,4.5 L0,9 L0,0" fill="#323232" stroke="#323232" stroke-width="1"></path></marker><marker id="SvgjsMarker1284" markerWidth="13" markerHeight="9" refX="9.5" refY="4.5" viewBox="0 0 13 9" orient="auto" markerUnits="userSpaceOnUse" stroke-dasharray="0,0"><path id="SvgjsPath1285" d="M0,0 L13,4.5 L0,9 L0,0" fill="#323232" stroke="#323232" stroke-width="1"></path></marker><marker id="SvgjsMarker1292" markerWidth="13" markerHeight="9" refX="9.5" refY="4.5" viewBox="0 0 13 9" orient="auto" markerUnits="userSpaceOnUse" stroke-dasharray="0,0"><path id="SvgjsPath1293" d="M0,0 L13,4.5 L0,9 L0,0" fill="#323232" stroke="#323232" stroke-width="1"></path></marker><marker id="SvgjsMarker1300" markerWidth="13" markerHeight="9" refX="9.5" refY="4.5" viewBox="0 0 13 9" orient="auto" markerUnits="userSpaceOnUse" stroke-dasharray="0,0"><path id="SvgjsPath1301" d="M0,0 L13,4.5 L0,9 L0,0" fill="#323232" stroke="#323232" stroke-width="1"></path></marker><marker id="SvgjsMarker1304" markerWidth="13" markerHeight="9" refX="9.5" refY="4.5" viewBox="0 0 13 9" orient="auto" markerUnits="userSpaceOnUse" stroke-dasharray="0,0"><path id="SvgjsPath1305" d="M0,0 L13,4.5 L0,9 L0,0" fill="#323232" stroke="#323232" stroke-width="1"></path></marker><marker id="SvgjsMarker1308" markerWidth="13" markerHeight="9" refX="9.5" refY="4.5" viewBox="0 0 13 9" orient="auto" markerUnits="userSpaceOnUse" stroke-dasharray="0,0"><path id="SvgjsPath1309" d="M0,0 L13,4.5 L0,9 L0,0" fill="#323232" stroke="#323232" stroke-width="1"></path></marker><marker id="SvgjsMarker1312" markerWidth="13" markerHeight="9" refX="9.5" refY="4.5" viewBox="0 0 13 9" orient="auto" markerUnits="userSpaceOnUse" stroke-dasharray="0,0"><path id="SvgjsPath1313" d="M0,0 L13,4.5 L0,9 L0,0" fill="#323232" stroke="#323232" stroke-width="1"></path></marker><marker id="SvgjsMarker1316" markerWidth="13" markerHeight="9" refX="9.5" refY="4.5" viewBox="0 0 13 9" orient="auto" markerUnits="userSpaceOnUse" stroke-dasharray="0,0"><path id="SvgjsPath1317" d="M0,0 L13,4.5 L0,9 L0,0" fill="#323232" stroke="#323232" stroke-width="1"></path></marker><marker id="SvgjsMarker1320" markerWidth="13" markerHeight="9" refX="9.5" refY="4.5" viewBox="0 0 13 9" orient="auto" markerUnits="userSpaceOnUse" stroke-dasharray="0,0"><path id="SvgjsPath1321" d="M0,0 L13,4.5 L0,9 L0,0" fill="#323232" stroke="#323232" stroke-width="1"></path></marker><marker id="SvgjsMarker1324" markerWidth="13" markerHeight="9" refX="9.5" refY="4.5" viewBox="0 0 13 9" orient="auto" markerUnits="userSpaceOnUse" stroke-dasharray="0,0"><path id="SvgjsPath1325" d="M0,0 L13,4.5 L0,9 L0,0" fill="#323232" stroke="#323232" stroke-width="1"></path></marker><marker id="SvgjsMarker1328" markerWidth="13" markerHeight="9" refX="9.5" refY="4.5" viewBox="0 0 13 9" orient="auto" markerUnits="userSpaceOnUse" stroke-dasharray="0,0"><path id="SvgjsPath1329" d="M0,0 L13,4.5 L0,9 L0,0" fill="#323232" stroke="#323232" stroke-width="1"></path></marker><marker id="SvgjsMarker1332" markerWidth="13" markerHeight="9" refX="9.5" refY="4.5" viewBox="0 0 13 9" orient="auto" markerUnits="userSpaceOnUse" stroke-dasharray="0,0"><path id="SvgjsPath1333" d="M0,0 L13,4.5 L0,9 L0,0" fill="#323232" stroke="#323232" stroke-width="1"></path></marker><marker id="SvgjsMarker1336" markerWidth="13" markerHeight="9" refX="9.5" refY="4.5" viewBox="0 0 13 9" orient="auto" markerUnits="userSpaceOnUse" stroke-dasharray="0,0"><path id="SvgjsPath1337" d="M0,0 L13,4.5 L0,9 L0,0" fill="#323232" stroke="#323232" stroke-width="1"></path></marker></defs><rect id="svgbackgroundid" width="936" height="534" fill="#ffffff"></rect><g id="SvgjsG1175" transform="translate(25,25.00568389892578)"><path id="SvgjsPath1176" d="M 0 4Q 0 0 4 0L 882.0965805053711 0Q 886.0965805053711 0 886.0965805053711 4L 886.0965805053711 480Q 886.0965805053711 484 882.0965805053711 484L 4 484Q 0 484 0 480Z" stroke-dasharray="3,4" stroke="rgba(50,50,50,1)" stroke-width="1.5" fill-opacity="1" fill="#ffffff"></path><g id="SvgjsG1177"><text id="SvgjsText1178" font-family="微软雅黑" text-anchor="middle" font-size="13px" width="877px" fill="#323232" font-weight="400" align="middle" lineHeight="125%" anchor="middle" family="微软雅黑" size="13px" weight="400" font-style="" opacity="1" y="8.44642857142857" transform="rotate(0)"><tspan id="SvgjsTspan1179" dy="16" x="443.5"><tspan id="SvgjsTspan1180" style="text-decoration:;">training</tspan></tspan><tspan id="SvgjsTspan1181" dy="16" x="443.5"><tspan id="SvgjsTspan1182" style="text-decoration:;"> </tspan></tspan><tspan id="SvgjsTspan1183" dy="16" x="443.5"><tspan id="SvgjsTspan1184" style="text-decoration:;"> </tspan></tspan></text></g></g><g id="SvgjsG1185" transform="translate(40.096580505371094,215.00568389892578)"><path id="SvgjsPath1186" d="M 0 4Q 0 0 4 0L 849.9034194946289 0Q 853.9034194946289 0 853.9034194946289 4L 853.9034194946289 274Q 853.9034194946289 278 849.9034194946289 278L 4 278Q 0 278 0 274Z" stroke-dasharray="3,4" stroke="rgba(50,50,50,1)" stroke-width="1.5" fill-opacity="1" fill="#ffffff"></path><g id="SvgjsG1187"><text id="SvgjsText1188" font-family="微软雅黑" text-anchor="middle" font-size="13px" width="844px" fill="#323232" font-weight="400" align="middle" lineHeight="125%" anchor="middle" family="微软雅黑" size="13px" weight="400" font-style="" opacity="1" y="1.7321428571428577" transform="rotate(0)"><tspan id="SvgjsTspan1189" dy="16" x="427"><tspan id="SvgjsTspan1190" style="text-decoration:;">inference</tspan></tspan><tspan id="SvgjsTspan1191" dy="16" x="427"><tspan id="SvgjsTspan1192" style="text-decoration:;"> </tspan></tspan></text></g></g><g id="SvgjsG1193" transform="translate(56.02839660644531,44.35511016845709)"><path id="SvgjsPath1194" d="M 0 4Q 0 0 4 0L 126.10797119140625 0Q 130.10797119140625 0 130.10797119140625 4L 130.10797119140625 366.23432358105964Q 130.10797119140625 370.23432358105964 126.10797119140625 370.23432358105964L 4 370.23432358105964Q 0 370.23432358105964 0 366.23432358105964Z" stroke-dasharray="10,6" stroke="rgba(50,50,50,1)" stroke-width="1.5" fill="none"></path><g id="SvgjsG1195"><text id="SvgjsText1196" font-family="微软雅黑" text-anchor="middle" font-size="13px" width="121px" fill="#323232" font-weight="400" align="middle" lineHeight="125%" anchor="middle" family="微软雅黑" size="13px" weight="400" font-style="" opacity="1" y="8.320308827218543" transform="rotate(0)"><tspan id="SvgjsTspan1197" dy="16" x="65.5"><tspan id="SvgjsTspan1198" style="text-decoration:;">input</tspan></tspan><tspan id="SvgjsTspan1199" dy="16" x="65.5"><tspan id="SvgjsTspan1200" style="text-decoration:;"> </tspan></tspan></text></g></g><g id="SvgjsG1201" transform="translate(330,254.00568389892578)"><path id="SvgjsPath1202" d="M 0 4Q 0 0 4 0L 231 0Q 235 0 235 4L 235 156.58374985059095Q 235 160.58374985059095 231 160.58374985059095L 4 160.58374985059095Q 0 160.58374985059095 0 156.58374985059095Z" stroke-dasharray="3,4" stroke="rgba(50,50,50,1)" stroke-width="1.5" fill-opacity="1" fill="#ffffff"></path><g id="SvgjsG1203"><text id="SvgjsText1204" font-family="微软雅黑" text-anchor="middle" font-size="13px" width="225px" fill="#323232" font-weight="400" align="middle" lineHeight="125%" anchor="middle" family="微软雅黑" size="13px" weight="400" font-style="" opacity="1" y="1.8452678464707812" transform="rotate(0)"><tspan id="SvgjsTspan1205" dy="16" x="117.5"><tspan id="SvgjsTspan1206" style="text-decoration:;">attention</tspan></tspan></text></g></g><g id="SvgjsG1207" transform="translate(75.58238220214844,353.35511016845703)"><path id="SvgjsPath1208" d="M 0 0L 91 0L 91 46L 0 46Z" stroke-dasharray="3,4" stroke="rgba(50,50,50,1)" stroke-width="1.5" fill-opacity="1" fill="#f2f2f2"></path><g id="SvgjsG1209"><text id="SvgjsText1210" font-family="微软雅黑" text-anchor="middle" font-size="13px" width="71px" fill="#323232" font-weight="400" align="middle" lineHeight="125%" anchor="middle" family="微软雅黑" size="13px" weight="400" font-style="" opacity="1" y="12.375" transform="rotate(0)"><tspan id="SvgjsTspan1211" dy="16" x="45.5"><tspan id="SvgjsTspan1212" style="text-decoration:;">image</tspan></tspan></text></g></g><g id="SvgjsG1213" transform="translate(217.109375,353.35511016845703)"><path id="SvgjsPath1214" d="M 0 4Q 0 0 4 0L 87 0Q 91 0 91 4L 91 42Q 91 46 87 46L 4 46Q 0 46 0 42Z" stroke="rgba(233,214,111,1)" stroke-width="1.5" fill-opacity="1" fill="#fcf9ea"></path><g id="SvgjsG1215"><text id="SvgjsText1216" font-family="微软雅黑" text-anchor="middle" font-size="13px" width="71px" fill="#323232" font-weight="400" align="middle" lineHeight="125%" anchor="middle" family="微软雅黑" size="13px" weight="400" font-style="" opacity="1" y="12.375" transform="rotate(0)"><tspan id="SvgjsTspan1217" dy="16" x="45.5"><tspan id="SvgjsTspan1218" style="text-decoration:;">CNN</tspan></tspan></text></g></g><g id="SvgjsG1219" transform="translate(787.1363677978517,353.35511016845703)"><path id="SvgjsPath1220" d="M 0 0L 91 0L 91 46L 0 46Z" stroke-dasharray="3,4" stroke="rgba(50,50,50,1)" stroke-width="1.5" fill-opacity="1" fill="#f2f2f2"></path><g id="SvgjsG1221"><text id="SvgjsText1222" font-family="微软雅黑" text-anchor="middle" font-size="13px" width="71px" fill="#323232" font-weight="400" align="middle" lineHeight="125%" anchor="middle" family="微软雅黑" size="13px" weight="400" font-style="" opacity="1" y="3.875" transform="rotate(0)"><tspan id="SvgjsTspan1223" dy="16" x="45.5"><tspan id="SvgjsTspan1224" style="text-decoration:;">license </tspan></tspan><tspan id="SvgjsTspan1225" dy="16" x="45.5"><tspan id="SvgjsTspan1226" style="text-decoration:;">plate chars</tspan></tspan></text></g></g><g id="SvgjsG1227" transform="translate(787.1363677978517,117.35511016845703)"><path id="SvgjsPath1228" d="M 0 0L 91 0L 91 46L 0 46Z" stroke-dasharray="3,4" stroke="rgba(50,50,50,1)" stroke-width="1.5" fill-opacity="1" fill="#f2f2f2"></path><g id="SvgjsG1229"><text id="SvgjsText1230" font-family="微软雅黑" text-anchor="middle" font-size="13px" width="71px" fill="#323232" font-weight="400" align="middle" lineHeight="125%" anchor="middle" family="微软雅黑" size="13px" weight="400" font-style="" opacity="1" y="12.375" transform="rotate(0)"><tspan id="SvgjsTspan1231" dy="16" x="45.5"><tspan id="SvgjsTspan1232" style="text-decoration:;">mask</tspan></tspan></text></g></g><g id="SvgjsG1233" transform="translate(75.58238220214844,147.53477195898688)"><path id="SvgjsPath1234" d="M 0 4Q 0 0 4 0L 87 0Q 91 0 91 4L 91 42Q 91 46 87 46L 4 46Q 0 46 0 42Z" stroke="rgba(127,127,127,1)" stroke-width="1.5" fill-opacity="1" fill="#d6d6d6"></path><g id="SvgjsG1235"><text id="SvgjsText1236" font-family="微软雅黑" text-anchor="middle" font-size="13px" width="71px" fill="#323232" font-weight="400" align="middle" lineHeight="125%" anchor="middle" family="微软雅黑" size="13px" weight="400" font-style="" opacity="1" y="3.875" transform="rotate(0)"><tspan id="SvgjsTspan1237" dy="16" x="45.5"><tspan id="SvgjsTspan1238" style="text-decoration:;">generated </tspan></tspan><tspan id="SvgjsTspan1239" dy="16" x="45.5"><tspan id="SvgjsTspan1240" style="text-decoration:;">masking</tspan></tspan></text></g></g><g id="SvgjsG1241" transform="translate(399.58238220214844,433.35511016845703)"><path id="SvgjsPath1242" d="M 0 4Q 0 0 4 0L 87 0Q 91 0 91 4L 91 42Q 91 46 87 46L 4 46Q 0 46 0 42Z" stroke="rgba(233,214,111,1)" stroke-width="1.5" fill-opacity="1" fill="#fcf9ea"></path><g id="SvgjsG1243"><text id="SvgjsText1244" font-family="微软雅黑" text-anchor="middle" font-size="13px" width="71px" fill="#323232" font-weight="400" align="middle" lineHeight="125%" anchor="middle" family="微软雅黑" size="13px" weight="400" font-style="" opacity="1" y="12.375" transform="rotate(0)"><tspan id="SvgjsTspan1245" dy="16" x="45.5"><tspan id="SvgjsTspan1246" style="text-decoration:;">conv.</tspan></tspan></text></g></g><g id="SvgjsG1247" transform="translate(75.58238220214845,87.35511016845703)"><path id="SvgjsPath1248" d="M 0 0L 91 0L 91 46L 0 46Z" stroke-dasharray="3,4" stroke="rgba(50,50,50,1)" stroke-width="1.5" fill-opacity="1" fill="#f2f2f2"></path><g id="SvgjsG1249"><text id="SvgjsText1250" font-family="微软雅黑" text-anchor="middle" font-size="13px" width="71px" fill="#323232" font-weight="400" align="middle" lineHeight="125%" anchor="middle" family="微软雅黑" size="13px" weight="400" font-style="" opacity="1" y="12.375" transform="rotate(0)"><tspan id="SvgjsTspan1251" dy="16" x="45.5"><tspan id="SvgjsTspan1252" style="text-decoration:;">label</tspan></tspan></text></g></g><g id="SvgjsG1253" transform="translate(399.58238220214844,353.35511016845703)"><path id="SvgjsPath1254" d="M 0 4Q 0 0 4 0L 87 0Q 91 0 91 4L 91 42Q 91 46 87 46L 4 46Q 0 46 0 42Z" stroke="rgba(149,218,105,1)" stroke-width="1.5" fill-opacity="1" fill="#e5f6da"></path><g id="SvgjsG1255"><text id="SvgjsText1256" font-family="微软雅黑" text-anchor="middle" font-size="13px" width="71px" fill="#323232" font-weight="400" align="middle" lineHeight="125%" anchor="middle" family="微软雅黑" size="13px" weight="400" font-style="" opacity="1" y="12.375" transform="rotate(0)"><tspan id="SvgjsTspan1257" dy="16" x="45.5"><tspan id="SvgjsTspan1258" style="text-decoration:;">L</tspan><tspan id="SvgjsTspan1259" style="text-decoration:;font-size: inherit;">ocal</tspan></tspan></text></g></g><g id="SvgjsG1260" transform="translate(399.58238220214844,288.35511016845703)"><path id="SvgjsPath1261" d="M 0 4Q 0 0 4 0L 87 0Q 91 0 91 4L 91 42Q 91 46 87 46L 4 46Q 0 46 0 42Z" stroke="rgba(241,172,106,1)" stroke-width="1.5" fill-opacity="1" fill="#fbeada"></path><g id="SvgjsG1262"><text id="SvgjsText1263" font-family="微软雅黑" text-anchor="middle" font-size="13px" width="71px" fill="#323232" font-weight="400" align="middle" lineHeight="125%" anchor="middle" family="微软雅黑" size="13px" weight="400" font-style="" opacity="1" y="12.375" transform="rotate(0)"><tspan id="SvgjsTspan1264" dy="16" x="45.5"><tspan id="SvgjsTspan1265" style="text-decoration:;">Global</tspan></tspan></text></g></g><g id="SvgjsG1266" transform="translate(657.5823822021484,353.35511016845703)"><path id="SvgjsPath1267" d="M 0 4Q 0 0 4 0L 87 0Q 91 0 91 4L 91 42Q 91 46 87 46L 4 46Q 0 46 0 42Z" stroke="rgba(141,190,213,1)" stroke-width="1.5" fill-opacity="1" fill="#e2eff5"></path><g id="SvgjsG1268"><text id="SvgjsText1269" font-family="微软雅黑" text-anchor="middle" font-size="13px" width="71px" fill="#323232" font-weight="400" align="middle" lineHeight="125%" anchor="middle" family="微软雅黑" size="13px" weight="400" font-style="" opacity="1" y="12.375" transform="rotate(0)"><tspan id="SvgjsTspan1270" dy="16" x="45.5"><tspan id="SvgjsTspan1271" style="text-decoration:;">FC</tspan></tspan></text></g></g><g id="SvgjsG1272"><path id="SvgjsPath1273" d="M121.08238220214847 352.60511016845703L121.08238220214847 273.44494106372196L121.08238220214847 273.44494106372196L121.08238220214847 196.23477195898687" stroke-dasharray="3,3" stroke="#323232" stroke-width="1.5" fill="none" marker-end="url(#SvgjsMarker1274)"></path></g><g id="SvgjsG1276" transform="translate(657.5823822021484,117.35511016845703)"><path id="SvgjsPath1277" d="M 0 4Q 0 0 4 0L 87 0Q 91 0 91 4L 91 42Q 91 46 87 46L 4 46Q 0 46 0 42Z" stroke="rgba(233,214,111,1)" stroke-width="1.5" fill-opacity="1" fill="#fcf9ea"></path><g id="SvgjsG1278"><text id="SvgjsText1279" font-family="微软雅黑" text-anchor="middle" font-size="13px" width="71px" fill="#323232" font-weight="400" align="middle" lineHeight="125%" anchor="middle" family="微软雅黑" size="13px" weight="400" font-style="" opacity="1" y="12.375" transform="rotate(0)"><tspan id="SvgjsTspan1280" dy="16" x="45.5"><tspan id="SvgjsTspan1281" style="text-decoration:;">conv.</tspan></tspan></text></g></g><g id="SvgjsG1282"><path id="SvgjsPath1283" d="M749.3323822021484 139.09659576416016L767.859375 139.09659576416016L767.859375 139.09659576416016L784.4363677978516 139.09659576416016" stroke="#323232" stroke-width="1.5" fill="none" marker-end="url(#SvgjsMarker1284)"></path></g><g id="SvgjsG1286" transform="translate(529.6099637349446,366.35511016845703)"><path id="SvgjsPath1287" d="M 0 10C 0 -3.3333333333333335 20 -3.3333333333333335 20 10C 20 23.333333333333332 0 23.333333333333332 0 10Z" stroke="rgba(50,50,50,1)" stroke-width="1.5" fill-opacity="1" fill="#ffffff"></path><path id="SvgjsPath1288" d="M 3.333333333333333 3.333333333333333L 16.666666666666668 16.666666666666668M 16.666666666666668 3.333333333333333L 3.333333333333333 16.666666666666668" stroke="rgba(50,50,50,1)" stroke-width="1.5" fill-opacity="1" fill="#ffffff"></path><path id="SvgjsPath1289" d="M 0 10C 0 -3.3333333333333335 20 -3.3333333333333335 20 10C 20 23.333333333333332 0 23.333333333333332 0 10Z" stroke="none" fill="none"></path></g><g id="SvgjsG1290"><path id="SvgjsPath1291" d="M749.609375 376.3551101684571L767.9978713989258 376.3551101684571L767.9978713989258 376.3551101684571L784.4363677978516 376.3551101684571" stroke="#323232" stroke-width="1.5" fill="none" marker-end="url(#SvgjsMarker1292)"></path></g><g id="SvgjsG1294" transform="translate(599.0283966064452,366.35511016845703)"><path id="SvgjsPath1295" d="M 0 10C 0 -3.3333333333333335 20 -3.3333333333333335 20 10C 20 23.333333333333332 0 23.333333333333332 0 10Z" stroke="rgba(50,50,50,1)" stroke-width="1.5" fill-opacity="1" fill="#ffffff"></path><path id="SvgjsPath1296" d="M 3.333333333333333 3.333333333333333L 16.666666666666668 16.666666666666668M 16.666666666666668 3.333333333333333L 3.333333333333333 16.666666666666668" stroke="rgba(50,50,50,1)" stroke-width="1.5" fill-opacity="1" fill="#ffffff"></path><path id="SvgjsPath1297" d="M 0 10C 0 -3.3333333333333335 20 -3.3333333333333335 20 10C 20 23.333333333333332 0 23.333333333333332 0 10Z" stroke="none" fill="none"></path></g><g id="SvgjsG1298"><path id="SvgjsPath1299" d="M308.859375 376.35511016845703L353.8458786010742 376.35511016845703L353.8458786010742 311.35511016845703L396.88238220214845 311.35511016845703" stroke="#323232" stroke-width="1.5" fill="none" marker-end="url(#SvgjsMarker1300)"></path></g><g id="SvgjsG1302"><path id="SvgjsPath1303" d="M550.3599637349446 376.35511016845703L574.3191801706948 376.35511016845703L574.3191801706948 376.35511016845703L596.3283966064452 376.35511016845703" stroke="#323232" stroke-width="1.5" fill="none" marker-end="url(#SvgjsMarker1304)"></path></g><g id="SvgjsG1306"><path id="SvgjsPath1307" d="M308.859375 376.35511016845703L353.8458786010742 376.35511016845703L353.8458786010742 456.35511016845703L396.88238220214845 456.35511016845703" stroke="#323232" stroke-width="1.5" fill="none" marker-end="url(#SvgjsMarker1308)"></path></g><g id="SvgjsG1310"><path id="SvgjsPath1311" d="M308.859375 376.35511016845703L353.8458786010742 376.35511016845703L353.8458786010742 376.35511016845703L396.88238220214845 376.35511016845703" stroke="#323232" stroke-width="1.5" fill="none" marker-end="url(#SvgjsMarker1312)"></path></g><g id="SvgjsG1314"><path id="SvgjsPath1315" d="M619.7783966064452 376.35511016845703L638.4438858032227 376.35511016845703L638.4438858032227 376.35511016845703L655.159375 376.35511016845703" stroke="#323232" stroke-width="1.5" fill="none" marker-end="url(#SvgjsMarker1316)"></path></g><g id="SvgjsG1318"><path id="SvgjsPath1319" d="M609.0283966064452 365.60511016845703L609.0283966064452 140.35511016845703L654.8823822021484 140.35511016845703" stroke="#323232" stroke-width="1.5" fill="none" marker-end="url(#SvgjsMarker1320)"></path></g><g id="SvgjsG1322"><path id="SvgjsPath1323" d="M491.33238220214844 456.35511016845703L609.0283966064452 456.35511016845703L609.0283966064452 389.055110168457" stroke="#323232" stroke-width="1.5" fill="none" marker-end="url(#SvgjsMarker1324)"></path></g><g id="SvgjsG1326"><path id="SvgjsPath1327" d="M491.33238220214844 311.35511016845703L539.6099637349446 311.35511016845703L539.6099637349446 363.65511016845704" stroke="#323232" stroke-width="1.5" fill="none" marker-end="url(#SvgjsMarker1328)"></path></g><g id="SvgjsG1330"><path id="SvgjsPath1331" d="M491.33238220214844 376.35511016845703L510.0961729685465 376.35511016845703L510.0961729685465 376.35511016845703L526.9099637349445 376.35511016845703" stroke="#323232" stroke-width="1.5" fill="none" marker-end="url(#SvgjsMarker1332)"></path></g><g id="SvgjsG1334"><path id="SvgjsPath1335" d="M167.33238220214844 376.35511016845703L191.84587860107422 376.35511016845703L191.84587860107422 376.35511016845703L214.409375 376.35511016845703" stroke="#323232" stroke-width="1.5" fill="none" marker-end="url(#SvgjsMarker1336)"></path></g></svg>