<svg id="SvgjsSvg1001" width="1104" height="538" xmlns="http://www.w3.org/2000/svg" version="1.1" xmlns:xlink="http://www.w3.org/1999/xlink" xmlns:svgjs="http://svgjs.com/svgjs"><defs id="SvgjsDefs1002"><marker id="SvgjsMarker1045" markerWidth="13" markerHeight="9" refX="9.5" refY="4.5" viewBox="0 0 13 9" orient="auto" markerUnits="userSpaceOnUse" stroke-dasharray="0,0"><path id="SvgjsPath1046" d="M0,0 L13,4.5 L0,9 L0,0" fill="#323232" stroke="#323232" stroke-width="1"></path></marker><marker id="SvgjsMarker1049" markerWidth="13" markerHeight="9" refX="9.5" refY="4.5" viewBox="0 0 13 9" orient="auto" markerUnits="userSpaceOnUse" stroke-dasharray="0,0"><path id="SvgjsPath1050" d="M0,0 L13,4.5 L0,9 L0,0" fill="#323232" stroke="#323232" stroke-width="1"></path></marker><marker id="SvgjsMarker1087" markerWidth="13" markerHeight="9" refX="9.5" refY="4.5" viewBox="0 0 13 9" orient="auto" markerUnits="userSpaceOnUse" stroke-dasharray="0,0"><path id="SvgjsPath1088" d="M0,0 L13,4.5 L0,9 L0,0" fill="#323232" stroke="#323232" stroke-width="1"></path></marker><marker id="SvgjsMarker1109" markerWidth="13" markerHeight="9" refX="9.5" refY="4.5" viewBox="0 0 13 9" orient="auto" markerUnits="userSpaceOnUse" stroke-dasharray="0,0"><path id="SvgjsPath1110" d="M0,0 L13,4.5 L0,9 L0,0" fill="#323232" stroke="#323232" stroke-width="1"></path></marker><marker id="SvgjsMarker1113" markerWidth="13" markerHeight="9" refX="9.5" refY="4.5" viewBox="0 0 13 9" orient="auto" markerUnits="userSpaceOnUse" stroke-dasharray="0,0"><path id="SvgjsPath1114" d="M0,0 L13,4.5 L0,9 L0,0" fill="#323232" stroke="#323232" stroke-width="1"></path></marker><marker id="SvgjsMarker1123" markerWidth="13" markerHeight="9" refX="9.5" refY="4.5" viewBox="0 0 13 9" orient="auto" markerUnits="userSpaceOnUse" stroke-dasharray="0,0"><path id="SvgjsPath1124" d="M0,0 L13,4.5 L0,9 L0,0" fill="#323232" stroke="#323232" stroke-width="1"></path></marker><marker id="SvgjsMarker1133" markerWidth="13" markerHeight="9" refX="9.5" refY="4.5" viewBox="0 0 13 9" orient="auto" markerUnits="userSpaceOnUse" stroke-dasharray="0,0"><path id="SvgjsPath1134" d="M0,0 L13,4.5 L0,9 L0,0" fill="#323232" stroke="#323232" stroke-width="1"></path></marker><marker id="SvgjsMarker1143" markerWidth="13" markerHeight="9" refX="9.5" refY="4.5" viewBox="0 0 13 9" orient="auto" markerUnits="userSpaceOnUse" stroke-dasharray="0,0"><path id="SvgjsPath1144" d="M0,0 L13,4.5 L0,9 L0,0" fill="#323232" stroke="#323232" stroke-width="1"></path></marker><marker id="SvgjsMarker1147" markerWidth="13" markerHeight="9" refX="9.5" refY="4.5" viewBox="0 0 13 9" orient="auto" markerUnits="userSpaceOnUse" stroke-dasharray="0,0"><path id="SvgjsPath1148" d="M0,0 L13,4.5 L0,9 L0,0" fill="#323232" stroke="#323232" stroke-width="1"></path></marker><marker id="SvgjsMarker1151" markerWidth="13" markerHeight="9" refX="9.5" refY="4.5" viewBox="0 0 13 9" orient="auto" markerUnits="userSpaceOnUse" stroke-dasharray="0,0"><path id="SvgjsPath1152" d="M0,0 L13,4.5 L0,9 L0,0" fill="#323232" stroke="#323232" stroke-width="1"></path></marker><marker id="SvgjsMarker1155" markerWidth="13" markerHeight="9" refX="9.5" refY="4.5" viewBox="0 0 13 9" orient="auto" markerUnits="userSpaceOnUse" stroke-dasharray="0,0"><path id="SvgjsPath1156" d="M0,0 L13,4.5 L0,9 L0,0" fill="#323232" stroke="#323232" stroke-width="1"></path></marker><marker id="SvgjsMarker1159" markerWidth="13" markerHeight="9" refX="9.5" refY="4.5" viewBox="0 0 13 9" orient="auto" markerUnits="userSpaceOnUse" stroke-dasharray="0,0"><path id="SvgjsPath1160" d="M0,0 L13,4.5 L0,9 L0,0" fill="#323232" stroke="#323232" stroke-width="1"></path></marker><marker id="SvgjsMarker1181" markerWidth="13" markerHeight="9" refX="9.5" refY="4.5" viewBox="0 0 13 9" orient="auto" markerUnits="userSpaceOnUse" stroke-dasharray="0,0"><path id="SvgjsPath1182" d="M0,0 L13,4.5 L0,9 L0,0" fill="#323232" stroke="#323232" stroke-width="1"></path></marker><marker id="SvgjsMarker1185" markerWidth="13" markerHeight="9" refX="9.5" refY="4.5" viewBox="0 0 13 9" orient="auto" markerUnits="userSpaceOnUse" stroke-dasharray="0,0"><path id="SvgjsPath1186" d="M0,0 L13,4.5 L0,9 L0,0" fill="#323232" stroke="#323232" stroke-width="1"></path></marker><marker id="SvgjsMarker1195" markerWidth="13" markerHeight="9" refX="9.5" refY="4.5" viewBox="0 0 13 9" orient="auto" markerUnits="userSpaceOnUse" stroke-dasharray="0,0"><path id="SvgjsPath1196" d="M0,0 L13,4.5 L0,9 L0,0" fill="#323232" stroke="#323232" stroke-width="1"></path></marker><marker id="SvgjsMarker1199" markerWidth="13" markerHeight="9" refX="9.5" refY="4.5" viewBox="0 0 13 9" orient="auto" markerUnits="userSpaceOnUse" stroke-dasharray="0,0"><path id="SvgjsPath1200" d="M0,0 L13,4.5 L0,9 L0,0" fill="#323232" stroke="#323232" stroke-width="1"></path></marker><marker id="SvgjsMarker1211" markerWidth="13" markerHeight="9" refX="9.5" refY="4.5" viewBox="0 0 13 9" orient="auto" markerUnits="userSpaceOnUse" stroke-dasharray="0,0"><path id="SvgjsPath1212" d="M0,0 L13,4.5 L0,9 L0,0" fill="#323232" stroke="#323232" stroke-width="1"></path></marker><marker id="SvgjsMarker1215" markerWidth="13" markerHeight="9" refX="9.5" refY="4.5" viewBox="0 0 13 9" orient="auto" markerUnits="userSpaceOnUse" stroke-dasharray="0,0"><path id="SvgjsPath1216" d="M0,0 L13,4.5 L0,9 L0,0" fill="#323232" stroke="#323232" stroke-width="1"></path></marker></defs><rect id="svgbackgroundid" width="1104" height="538" fill="#ffffff"></rect><g id="SvgjsG1009" transform="translate(25.009890874226926,25.00533103942871)"><path id="SvgjsPath1010" d="M 0 4Q 0 0 4 0L 1050.2529538472493 0Q 1054.2529538472493 0 1054.2529538472493 4L 1054.2529538472493 484.0681792895Q 1054.2529538472493 488.0681792895 1050.2529538472493 488.0681792895L 4 488.0681792895Q 0 488.0681792895 0 484.0681792895Z" stroke-dasharray="3,4" stroke="rgba(50,50,50,1)" stroke-width="1.5" fill-opacity="1" fill="#ffffff"></path><g id="SvgjsG1011"><text id="SvgjsText1012" font-family="微软雅黑" text-anchor="middle" font-size="13px" width="1045px" fill="#323232" font-weight="400" align="middle" lineHeight="125%" anchor="middle" family="微软雅黑" size="13px" weight="400" font-style="" opacity="1" y="8.737012806392855" transform="rotate(0)"><tspan id="SvgjsTspan1013" dy="16" x="527.5"><tspan id="SvgjsTspan1014" style="text-decoration:;">training</tspan></tspan><tspan id="SvgjsTspan1015" dy="16" x="527.5"><tspan id="SvgjsTspan1016" style="text-decoration:;"> </tspan></tspan><tspan id="SvgjsTspan1017" dy="16" x="527.5"><tspan id="SvgjsTspan1018" style="text-decoration:;"> </tspan></tspan></text></g></g><g id="SvgjsG1019" transform="translate(46.8752873738606,79.1719977060954)"><path id="SvgjsPath1020" d="M 0 4Q 0 0 4 0L 1006.5221608479819 0Q 1010.5221608479819 0 1010.5221608479819 4L 1010.5221608479819 267.875Q 1010.5221608479819 271.875 1006.5221608479819 271.875L 4 271.875Q 0 271.875 0 267.875Z" stroke-dasharray="3,4" stroke="rgba(50,50,50,1)" stroke-width="1.5" fill-opacity="1" fill="#ffffff"></path><g id="SvgjsG1021"><text id="SvgjsText1022" font-family="微软雅黑" text-anchor="middle" font-size="13px" width="1001px" fill="#323232" font-weight="400" align="middle" lineHeight="125%" anchor="middle" family="微软雅黑" size="13px" weight="400" font-style="" opacity="1" y="9.794642857142858" transform="rotate(0)"><tspan id="SvgjsTspan1023" dy="16" x="505.5"><tspan id="SvgjsTspan1024" style="text-decoration:;">inference</tspan></tspan></text></g></g><g id="SvgjsG1025" transform="translate(34.08238220214844,159.31250000000006)"><path id="SvgjsPath1026" d="M 0 4Q 0 0 4 0L 126.10797119140625 0Q 130.10797119140625 0 130.10797119140625 4L 130.10797119140625 336.2193436622619Q 130.10797119140625 340.2193436622619 126.10797119140625 340.2193436622619L 4 340.2193436622619Q 0 340.2193436622619 0 336.2193436622619Z" stroke-dasharray="10,6" stroke="rgba(50,50,50,1)" stroke-width="1.5" fill="none"></path><g id="SvgjsG1027"><text id="SvgjsText1028" font-family="微软雅黑" text-anchor="middle" font-size="13px" width="121px" fill="#323232" font-weight="400" align="middle" lineHeight="125%" anchor="middle" family="微软雅黑" size="13px" weight="400" font-style="" opacity="1" y="14.676381690161563" transform="rotate(0)"><tspan id="SvgjsTspan1029" dy="16" x="65.5"><tspan id="SvgjsTspan1030" style="text-decoration:;">input</tspan></tspan></text></g></g><g id="SvgjsG1031" transform="translate(53.63636779785156,208.3125)"><path id="SvgjsPath1032" d="M 0 0L 91 0L 91 46L 0 46Z" stroke-dasharray="3,4" stroke="rgba(50,50,50,1)" stroke-width="1.5" fill-opacity="1" fill="#f2f2f2"></path><g id="SvgjsG1033"><text id="SvgjsText1034" font-family="微软雅黑" text-anchor="middle" font-size="13px" width="71px" fill="#323232" font-weight="400" align="middle" lineHeight="125%" anchor="middle" family="微软雅黑" size="13px" weight="400" font-style="" opacity="1" y="12.375" transform="rotate(0)"><tspan id="SvgjsTspan1035" dy="16" x="45.5"><tspan id="SvgjsTspan1036" style="text-decoration:;">image</tspan></tspan></text></g></g><g id="SvgjsG1037" transform="translate(205.41336059570315,208.3125)"><path id="SvgjsPath1038" d="M 0 4Q 0 0 4 0L 87 0Q 91 0 91 4L 91 42Q 91 46 87 46L 4 46Q 0 46 0 42Z" stroke="rgba(233,214,111,1)" stroke-width="1.5" fill-opacity="1" fill="#fcf9ea"></path><g id="SvgjsG1039"><text id="SvgjsText1040" font-family="微软雅黑" text-anchor="middle" font-size="13px" width="71px" fill="#323232" font-weight="400" align="middle" lineHeight="125%" anchor="middle" family="微软雅黑" size="13px" weight="400" font-style="" opacity="1" y="12.375" transform="rotate(0)"><tspan id="SvgjsTspan1041" dy="16" x="45.5"><tspan id="SvgjsTspan1042" style="text-decoration:;">CNN</tspan></tspan></text></g></g><g id="SvgjsG1043"><path id="SvgjsPath1044" d="M297.16247260638306 231.2760144486807C 312.9025634765625 230.3125 321.1471649169922 230.3125 334.93956455940383 231.18115201525058" stroke="#323232" stroke-width="1.5" fill="none" marker-end="url(#SvgjsMarker1045)"></path></g><g id="SvgjsG1047"><path id="SvgjsPath1048" d="M851.8863677978516 318.74574279785145L953.9363677978514 318.7457427978514" stroke="#323232" stroke-width="1.5" fill="none" marker-end="url(#SvgjsMarker1049)"></path></g><g id="SvgjsG1051" transform="translate(956.6363677978514,208.3125)"><path id="SvgjsPath1052" d="M 0 0L 91 0L 91 46L 0 46Z" stroke-dasharray="3,4" stroke="rgba(50,50,50,1)" stroke-width="1.5" fill-opacity="1" fill="#f2f2f2"></path><g id="SvgjsG1053"><text id="SvgjsText1054" font-family="微软雅黑" text-anchor="middle" font-size="13px" width="71px" fill="#323232" font-weight="400" align="middle" lineHeight="125%" anchor="middle" family="微软雅黑" size="13px" weight="400" font-style="" opacity="1" y="3.875" transform="rotate(0)"><tspan id="SvgjsTspan1055" dy="16" x="45.5"><tspan id="SvgjsTspan1056" style="text-decoration:;">license </tspan></tspan><tspan id="SvgjsTspan1057" dy="16" x="45.5"><tspan id="SvgjsTspan1058" style="text-decoration:;">plate</tspan></tspan></text></g></g><g id="SvgjsG1059" transform="translate(956.6363677978514,419.3125)"><path id="SvgjsPath1060" d="M 0 0L 91 0L 91 46L 0 46Z" stroke-dasharray="3,4" stroke="rgba(50,50,50,1)" stroke-width="1.5" fill-opacity="1" fill="#f2f2f2"></path><g id="SvgjsG1061"><text id="SvgjsText1062" font-family="微软雅黑" text-anchor="middle" font-size="13px" width="71px" fill="#323232" font-weight="400" align="middle" lineHeight="125%" anchor="middle" family="微软雅黑" size="13px" weight="400" font-style="" opacity="1" y="12.375" transform="rotate(0)"><tspan id="SvgjsTspan1063" dy="16" x="45.5"><tspan id="SvgjsTspan1064" style="text-decoration:;">mask</tspan></tspan></text></g></g><g id="SvgjsG1065" transform="translate(53.63636779785156,373.42966179052985)"><path id="SvgjsPath1066" d="M 0 4Q 0 0 4 0L 87 0Q 91 0 91 4L 91 42Q 91 46 87 46L 4 46Q 0 46 0 42Z" stroke="rgba(127,127,127,1)" stroke-width="1.5" fill-opacity="1" fill="#d6d6d6"></path><g id="SvgjsG1067"><text id="SvgjsText1068" font-family="微软雅黑" text-anchor="middle" font-size="13px" width="71px" fill="#323232" font-weight="400" align="middle" lineHeight="125%" anchor="middle" family="微软雅黑" size="13px" weight="400" font-style="" opacity="1" y="3.875" transform="rotate(0)"><tspan id="SvgjsTspan1069" dy="16" x="45.5"><tspan id="SvgjsTspan1070" style="text-decoration:;">generated </tspan></tspan><tspan id="SvgjsTspan1071" dy="16" x="45.5"><tspan id="SvgjsTspan1072" style="text-decoration:;">masking</tspan></tspan></text></g></g><g id="SvgjsG1073" transform="translate(469.63636779785156,295.3125)"><path id="SvgjsPath1074" d="M 0 4Q 0 0 4 0L 87 0Q 91 0 91 4L 91 42Q 91 46 87 46L 4 46Q 0 46 0 42Z" stroke="rgba(233,214,111,1)" stroke-width="1.5" fill-opacity="1" fill="#fcf9ea"></path><g id="SvgjsG1075"><text id="SvgjsText1076" font-family="微软雅黑" text-anchor="middle" font-size="13px" width="71px" fill="#323232" font-weight="400" align="middle" lineHeight="125%" anchor="middle" family="微软雅黑" size="13px" weight="400" font-style="" opacity="1" y="12.375" transform="rotate(0)"><tspan id="SvgjsTspan1077" dy="16" x="45.5"><tspan id="SvgjsTspan1078" style="text-decoration:;">conv.</tspan></tspan></text></g></g><g id="SvgjsG1079" transform="translate(474.53032938639296,383.3125)"><path id="SvgjsPath1080" d="M 0 4Q 0 0 4 0L 375.2120768229172 0Q 379.2120768229172 0 379.2120768229172 4L 379.2120768229172 91.74148559570312Q 379.2120768229172 95.74148559570312 375.2120768229172 95.74148559570312L 4 95.74148559570312Q 0 95.74148559570312 0 91.74148559570312Z" stroke-dasharray="10,6" stroke="rgba(50,50,50,1)" stroke-width="1.5" fill="none"></path><g id="SvgjsG1081"><text id="SvgjsText1082" font-family="微软雅黑" text-anchor="middle" font-size="13px" width="370px" fill="#323232" font-weight="400" align="middle" lineHeight="125%" anchor="middle" family="微软雅黑" size="13px" weight="400" font-style="" opacity="1" y="-2.786322457449777" transform="rotate(0)"><tspan id="SvgjsTspan1083" dy="16" x="190"><tspan id="SvgjsTspan1084" style="text-decoration:;">mask head</tspan></tspan></text></g></g><g id="SvgjsG1085"><path id="SvgjsPath1086" d="M561.3863677978516 318.31250000000006L828.4363677978515 318.3125000000001" stroke="#323232" stroke-width="1.5" fill="none" marker-end="url(#SvgjsMarker1087)"></path></g><g id="SvgjsG1089" transform="translate(53.63636779785158,442.3125)"><path id="SvgjsPath1090" d="M 0 0L 91 0L 91 46L 0 46Z" stroke-dasharray="3,4" stroke="rgba(50,50,50,1)" stroke-width="1.5" fill-opacity="1" fill="#f2f2f2"></path><g id="SvgjsG1091"><text id="SvgjsText1092" font-family="微软雅黑" text-anchor="middle" font-size="13px" width="71px" fill="#323232" font-weight="400" align="middle" lineHeight="125%" anchor="middle" family="微软雅黑" size="13px" weight="400" font-style="" opacity="1" y="12.375" transform="rotate(0)"><tspan id="SvgjsTspan1093" dy="16" x="45.5"><tspan id="SvgjsTspan1094" style="text-decoration:;">label</tspan></tspan></text></g></g><g id="SvgjsG1095" transform="translate(337.63636779785156,208.3125)"><path id="SvgjsPath1096" d="M 0 4Q 0 0 4 0L 87 0Q 91 0 91 4L 91 42Q 91 46 87 46L 4 46Q 0 46 0 42Z" stroke="rgba(149,218,105,1)" stroke-width="1.5" fill-opacity="1" fill="#e5f6da"></path><g id="SvgjsG1097"><text id="SvgjsText1098" font-family="微软雅黑" text-anchor="middle" font-size="13px" width="71px" fill="#323232" font-weight="400" align="middle" lineHeight="125%" anchor="middle" family="微软雅黑" size="13px" weight="400" font-style="" opacity="1" y="12.375" transform="rotate(0)"><tspan id="SvgjsTspan1099" dy="16" x="45.5"><tspan id="SvgjsTspan1100" style="text-decoration:;">G.A.P.</tspan></tspan></text></g></g><g id="SvgjsG1101" transform="translate(337.63636779785156,113.3125)"><path id="SvgjsPath1102" d="M 0 4Q 0 0 4 0L 87 0Q 91 0 91 4L 91 42Q 91 46 87 46L 4 46Q 0 46 0 42Z" stroke="rgba(233,214,111,1)" stroke-width="1.5" fill-opacity="1" fill="#fcf9ea"></path><g id="SvgjsG1103"><text id="SvgjsText1104" font-family="微软雅黑" text-anchor="middle" font-size="13px" width="71px" fill="#323232" font-weight="400" align="middle" lineHeight="125%" anchor="middle" family="微软雅黑" size="13px" weight="400" font-style="" opacity="1" y="12.375" transform="rotate(0)"><tspan id="SvgjsTspan1105" dy="16" x="45.5"><tspan id="SvgjsTspan1106" style="text-decoration:;">conv.</tspan></tspan></text></g></g><g id="SvgjsG1107"><path id="SvgjsPath1108" d="M297.1237117237397 231.07187316255823C 337.47007517013225 230.3125 296.57965322342244 136.3125 335.0584414130837 137.11518023192164" stroke="#323232" stroke-width="1.5" fill="none" marker-end="url(#SvgjsMarker1109)"></path></g><g id="SvgjsG1111"><path id="SvgjsPath1112" d="M431.3409095118139 229.31437886272806C 444.7693176269531 229.3125 451.8585205078125 229.3125 466.93948719686273 230.1827501483236" stroke="#323232" stroke-width="1.5" fill="none" marker-end="url(#SvgjsMarker1113)"></path></g><g id="SvgjsG1115" transform="translate(469.63636779785156,208.3125)"><path id="SvgjsPath1116" d="M 0 4Q 0 0 4 0L 87 0Q 91 0 91 4L 91 42Q 91 46 87 46L 4 46Q 0 46 0 42Z" stroke="rgba(233,214,111,1)" stroke-width="1.5" fill-opacity="1" fill="#fcf9ea"></path><g id="SvgjsG1117"><text id="SvgjsText1118" font-family="微软雅黑" text-anchor="middle" font-size="13px" width="71px" fill="#323232" font-weight="400" align="middle" lineHeight="125%" anchor="middle" family="微软雅黑" size="13px" weight="400" font-style="" opacity="1" y="12.375" transform="rotate(0)"><tspan id="SvgjsTspan1119" dy="16" x="45.5"><tspan id="SvgjsTspan1120" style="text-decoration:;">conv.</tspan></tspan></text></g></g><g id="SvgjsG1121"><path id="SvgjsPath1122" d="M561.384946135907 231.26634296592857C 571.9971496582032 230.3125 579.477261352539 230.3125 591.740915631387 231.1764300329115" stroke="#323232" stroke-width="1.5" fill="none" marker-end="url(#SvgjsMarker1123)"></path></g><g id="SvgjsG1125" transform="translate(594.4374847412109,208.3125)"><path id="SvgjsPath1126" d="M 0 4Q 0 0 4 0L 87 0Q 91 0 91 4L 91 42Q 91 46 87 46L 4 46Q 0 46 0 42Z" stroke="rgba(91,121,232,1)" stroke-width="1.5" fill-opacity="1" fill="#d2d6f9"></path><g id="SvgjsG1127"><text id="SvgjsText1128" font-family="微软雅黑" text-anchor="middle" font-size="13px" width="71px" fill="#323232" font-weight="400" align="middle" lineHeight="125%" anchor="middle" family="微软雅黑" size="13px" weight="400" font-style="" opacity="1" y="12.375" transform="rotate(0)"><tspan id="SvgjsTspan1129" dy="16" x="45.5"><tspan id="SvgjsTspan1130" style="text-decoration:;">upsample</tspan></tspan></text></g></g><g id="SvgjsG1131"><path id="SvgjsPath1132" d="M686.1865024676 231.27412754171348C 721.7311739343909 230.3125 721.4861691792806 227.94093132019043 719.7913265197025 149.01202221089773" stroke="#323232" stroke-width="1.5" fill="none" marker-end="url(#SvgjsMarker1133)"></path></g><g id="SvgjsG1135" transform="translate(795.6363677978516,208.3125)"><path id="SvgjsPath1136" d="M 0 4Q 0 0 4 0L 87 0Q 91 0 91 4L 91 42Q 91 46 87 46L 4 46Q 0 46 0 42Z" stroke="rgba(91,121,232,1)" stroke-width="1.5" fill-opacity="1" fill="#d2d6f9"></path><g id="SvgjsG1137"><text id="SvgjsText1138" font-family="微软雅黑" text-anchor="middle" font-size="13px" width="71px" fill="#323232" font-weight="400" align="middle" lineHeight="125%" anchor="middle" family="微软雅黑" size="13px" weight="400" font-style="" opacity="1" y="12.375" transform="rotate(0)"><tspan id="SvgjsTspan1139" dy="16" x="45.5"><tspan id="SvgjsTspan1140" style="text-decoration:;">upsample</tspan></tspan></text></g></g><g id="SvgjsG1141"><path id="SvgjsPath1142" d="M730.4800244531319 136.43761817110146C 799.914792742048 136.76138741629464 734.2005070277623 232.47567313058036 792.9731451350461 230.86837721481572" stroke="#323232" stroke-width="1.5" fill="none" marker-end="url(#SvgjsMarker1143)"></path></g><g id="SvgjsG1145"><path id="SvgjsPath1146" d="M840.3418324788413 255.0625L840.3418324788414 305.6125" stroke="#323232" stroke-width="1.5" fill="none" marker-end="url(#SvgjsMarker1147)"></path></g><g id="SvgjsG1149"><path id="SvgjsPath1150" d="M429.38636779785156 136.3125L707.0405344645179 136.3125" stroke="#323232" stroke-width="1.5" fill="none" marker-end="url(#SvgjsMarker1151)"></path></g><g id="SvgjsG1153"><path id="SvgjsPath1154" d="M250.91272139340032 255.06249972761356C 251.34336417061945 315.3328159877232 238.15283584594727 314.5886643727621 466.9363928283819 315.55087398445994" stroke="#323232" stroke-width="1.5" fill="none" marker-end="url(#SvgjsMarker1155)"></path></g><g id="SvgjsG1157"><path id="SvgjsPath1158" d="M99.13636779785159 255.0625L99.13636779785168 370.72966179052986" stroke="#323232" stroke-width="1.5" fill="none" marker-end="url(#SvgjsMarker1159)"></path></g><g id="SvgjsG1161" transform="translate(486.4602508544921,419.3125)"><path id="SvgjsPath1162" d="M 0 4Q 0 0 4 0L 87 0Q 91 0 91 4L 91 42Q 91 46 87 46L 4 46Q 0 46 0 42Z" stroke="rgba(91,121,232,1)" stroke-width="1.5" fill-opacity="1" fill="#d2d6f9"></path><g id="SvgjsG1163"><text id="SvgjsText1164" font-family="微软雅黑" text-anchor="middle" font-size="13px" width="71px" fill="#323232" font-weight="400" align="middle" lineHeight="125%" anchor="middle" family="微软雅黑" size="13px" weight="400" font-style="" opacity="1" y="12.375" transform="rotate(0)"><tspan id="SvgjsTspan1165" dy="16" x="45.5"><tspan id="SvgjsTspan1166" style="text-decoration:;">upsample</tspan></tspan></text></g></g><g id="SvgjsG1167" transform="translate(618.6363677978516,419.3125)"><path id="SvgjsPath1168" d="M 0 4Q 0 0 4 0L 87 0Q 91 0 91 4L 91 42Q 91 46 87 46L 4 46Q 0 46 0 42Z" stroke="rgba(233,214,111,1)" stroke-width="1.5" fill-opacity="1" fill="#fcf9ea"></path><g id="SvgjsG1169"><text id="SvgjsText1170" font-family="微软雅黑" text-anchor="middle" font-size="13px" width="71px" fill="#323232" font-weight="400" align="middle" lineHeight="125%" anchor="middle" family="微软雅黑" size="13px" weight="400" font-style="" opacity="1" y="12.375" transform="rotate(0)"><tspan id="SvgjsTspan1171" dy="16" x="45.5"><tspan id="SvgjsTspan1172" style="text-decoration:;">conv.</tspan></tspan></text></g></g><g id="SvgjsG1173" transform="translate(749.0208180745442,419.3125)"><path id="SvgjsPath1174" d="M 0 4Q 0 0 4 0L 87 0Q 91 0 91 4L 91 42Q 91 46 87 46L 4 46Q 0 46 0 42Z" stroke="rgba(91,121,232,1)" stroke-width="1.5" fill-opacity="1" fill="#d2d6f9"></path><g id="SvgjsG1175"><text id="SvgjsText1176" font-family="微软雅黑" text-anchor="middle" font-size="13px" width="71px" fill="#323232" font-weight="400" align="middle" lineHeight="125%" anchor="middle" family="微软雅黑" size="13px" weight="400" font-style="" opacity="1" y="12.375" transform="rotate(0)"><tspan id="SvgjsTspan1177" dy="16" x="45.5"><tspan id="SvgjsTspan1178" style="text-decoration:;">upsample</tspan></tspan></text></g></g><g id="SvgjsG1179"><path id="SvgjsPath1180" d="M578.2084635092511 442.26075231156443C 593.5723642985025 440.92199770609534 601.6284210205077 440.92199770609534 615.9422667617364 442.13411948760273" stroke="#323232" stroke-width="1.5" fill="none" marker-end="url(#SvgjsMarker1181)"></path></g><g id="SvgjsG1183"><path id="SvgjsPath1184" d="M710.3844533397569 442.25894608331527C 724.8526479085286 440.92199770609534 732.9087046305337 440.92199770609534 746.3271178940657 442.1281651479223" stroke="#323232" stroke-width="1.5" fill="none" marker-end="url(#SvgjsMarker1185)"></path></g><g id="SvgjsG1187" transform="translate(956.6363677978514,295.3125)"><path id="SvgjsPath1188" d="M 0 4Q 0 0 4 0L 87 0Q 91 0 91 4L 91 42Q 91 46 87 46L 4 46Q 0 46 0 42Z" stroke="rgba(112,213,215,1)" stroke-width="1.5" fill-opacity="1" fill="#dbf5f5"></path><g id="SvgjsG1189"><text id="SvgjsText1190" font-family="微软雅黑" text-anchor="middle" font-size="13px" width="71px" fill="#323232" font-weight="400" align="middle" lineHeight="125%" anchor="middle" family="微软雅黑" size="13px" weight="400" font-style="" opacity="1" y="12.375" transform="rotate(0)"><tspan id="SvgjsTspan1191" dy="16" x="45.5"><tspan id="SvgjsTspan1192" style="text-decoration:;">dense</tspan></tspan></text></g></g><g id="SvgjsG1193"><path id="SvgjsPath1194" d="M1002.1363677978516 294.5625C 1002.1363677978516 278.9125 1002.1363677978516 270.7125 1002.1363677978516 257.0125" stroke="#323232" stroke-width="1.5" fill="none" marker-end="url(#SvgjsMarker1195)"></path></g><g id="SvgjsG1197"><path id="SvgjsPath1198" d="M162.86116813944795 228.98384688552588C 179.43204574584962 228.98259798685712 188.09248402913414 228.98259798685712 202.7165590575044 229.85121509767882" stroke="#323232" stroke-width="1.5" fill="none" marker-end="url(#SvgjsMarker1199)"></path></g><g id="SvgjsG1201" transform="translate(709.740534464518,126.3125)"><path id="SvgjsPath1202" d="M 0 10C 0 -3.3333333333333335 20 -3.3333333333333335 20 10C 20 23.333333333333332 0 23.333333333333332 0 10Z" stroke="rgba(50,50,50,1)" stroke-width="1.5" fill="none"></path><path id="SvgjsPath1203" d="M 3.333333333333333 3.333333333333333L 16.666666666666668 16.666666666666668M 16.666666666666668 3.333333333333333L 3.333333333333333 16.666666666666668" stroke="rgba(50,50,50,1)" stroke-width="1.5" fill="none"></path><path id="SvgjsPath1204" d="M 0 10C 0 -3.3333333333333335 20 -3.3333333333333335 20 10C 20 23.333333333333332 0 23.333333333333332 0 10Z" stroke="none" fill="none"></path></g><g id="SvgjsG1205" transform="matrix(0.7071067811865476,0.7071067811865475,-0.7071067811865475,0.7071067811865476,841.1363525390625,304.17036437626905)"><path id="SvgjsPath1206" d="M 0 10C 0 -3.3333333333333335 20 -3.3333333333333335 20 10C 20 23.333333333333332 0 23.333333333333332 0 10Z" stroke="rgba(50,50,50,1)" stroke-width="1.5" fill="none"></path><path id="SvgjsPath1207" d="M 3.333333333333333 3.333333333333333L 16.666666666666668 16.666666666666668M 16.666666666666668 3.333333333333333L 3.333333333333333 16.666666666666668" stroke="rgba(50,50,50,1)" stroke-width="1.5" fill="none"></path><path id="SvgjsPath1208" d="M 0 10C 0 -3.3333333333333335 20 -3.3333333333333335 20 10C 20 23.333333333333332 0 23.333333333333332 0 10Z" stroke="none" fill="none"></path></g><g id="SvgjsG1209"><path id="SvgjsPath1210" d="M841.1513621321496 329.0624986548762L841.0537295446733 380.6125048424457" stroke="#323232" stroke-width="1.5" fill="none" marker-end="url(#SvgjsMarker1211)"></path></g><g id="SvgjsG1213"><path id="SvgjsPath1214" d="M853.7130737304688 441.0539855957031L953.9363677978514 441.0539855957031" stroke="#323232" stroke-width="1.5" fill="none" marker-end="url(#SvgjsMarker1215)"></path></g></svg>